<svg id="Capa_1" enable-background="new 0 0 511.988 511.988" height="512" viewBox="0 0 511.988 511.988" width="512" xmlns="http://www.w3.org/2000/svg"><g><g><g><g><g><path clip-rule="evenodd" d="m440.013 282.064v-76.722c0-112.985-82.388-195.354-184.018-195.354-101.631 0-184.018 82.369-184.018 195.354v76.722" fill="#e7e9ef" fill-rule="evenodd"/></g></g></g><g><g><g><path d="m118.941 69.526c-3.237-23.077-23.064-40.835-47.039-40.835-26.234 0-47.502 21.262-47.502 47.491s21.267 47.491 47.502 47.491c4.802 0 9.437-.713 13.807-2.038" fill="#b6bccf"/></g></g><g><g><g><path d="m426.28 121.634c4.369 1.325 9.005 2.038 13.806 2.038 26.235 0 47.502-21.262 47.502-47.491s-21.267-47.491-47.502-47.491c-23.975 0-43.801 17.758-47.039 40.835" fill="#b6bccf"/></g></g><g><g><g><path d="m422.794 431.49h-167.936-165.664c-34.95 0-63.282-28.332-63.282-63.282v-25.589c0-34.95 28.332-63.282 63.282-63.282h333.6c34.95 0 63.282 28.332 63.282 63.282v25.589c.001 34.949-28.332 63.282-63.282 63.282z" fill="#b6bccf"/></g></g><g><g><g><g><path clip-rule="evenodd" d="m103.275 431.49h59.15v70.499h-59.15z" fill="#f5eeec" fill-rule="evenodd"/></g></g></g><g><g><g><path clip-rule="evenodd" d="m349.563 431.49h59.15v70.499h-59.15z" fill="#f5eeec" fill-rule="evenodd"/></g></g></g><g><g><g><g><path clip-rule="evenodd" d="m349.563 431.49h-187.138v63.498c13.512 4.504 27.999 7.001 43.068 7.001h101.002c15.07 0 29.556-2.496 43.068-7.001z" fill="#cfd3df" fill-rule="evenodd"/></g></g></g></g></g></g></g></g></g><g><g><g><g><g><path d="m152.491 379.702c-5.523 0-10-4.478-10-10v-16.414c0-5.523 4.477-10 10-10s10 4.477 10 10v16.414c0 5.523-4.477 10-10 10z"/></g></g></g></g><g><g><g><g><path d="m359.498 379.702c-5.523 0-10-4.478-10-10v-16.414c0-5.523 4.477-10 10-10s10 4.477 10 10v16.414c0 5.523-4.477 10-10 10z"/></g></g></g></g><path d="m450.013 274.578v-69.236c0-25.116-3.878-49.238-11.416-71.689.496.013.992.019 1.489.019 31.706 0 57.502-25.79 57.502-57.49 0-31.701-25.795-57.491-57.502-57.491-23.01 0-43.395 13.849-52.482 34.014-23.617-22.565-52.693-38.849-84.23-46.848-5.354-1.358-10.793 1.881-12.152 7.235-1.357 5.353 1.882 10.793 7.235 12.151 78.687 19.956 131.555 92.332 131.555 180.099v64.348c-2.375-.233-4.783-.353-7.218-.353h-333.6c-2.435 0-4.843.12-7.218.353v-64.348c0-87.586 52.726-159.926 131.204-180.01l.521-.133c5.35-1.367 8.58-6.813 7.212-12.164-1.367-5.351-6.816-8.584-12.165-7.213l-.53.136c-31.382 8.031-60.316 24.277-83.834 46.747-9.086-20.165-29.471-34.014-52.482-34.014-31.707 0-57.502 25.79-57.502 57.491 0 31.7 25.795 57.49 57.502 57.49.497 0 .994-.007 1.49-.019-7.538 22.453-11.416 46.575-11.416 71.689v69.236c-26.97 10.827-46.064 37.247-46.064 68.042v25.588c0 40.408 32.875 73.282 73.282 73.282h4.081v60.499c0 5.522 4.477 10 10 10h59.15c3.376 0 6.36-1.673 8.171-4.234 11.418 2.813 23.111 4.234 34.897 4.234h101.002c11.787 0 23.48-1.421 34.897-4.234 1.811 2.561 4.795 4.234 8.171 4.234h59.15c5.523 0 10-4.478 10-10v-60.499h4.081c40.408 0 73.282-32.874 73.282-73.282v-25.588c.001-30.796-19.093-57.215-46.063-68.042zm-46.83-205.107c3.19-17.648 18.8-30.781 36.904-30.781 20.679 0 37.502 16.818 37.502 37.491 0 20.672-16.823 37.49-37.502 37.49-3.395 0-6.748-.451-9.983-1.341-5.945-12.8-13.188-24.917-21.679-36.205-1.701-2.259-3.449-4.478-5.242-6.654zm-331.281 44.201c-20.679 0-37.502-16.818-37.502-37.49 0-20.673 16.823-37.491 37.502-37.491 18.103 0 33.714 13.132 36.903 30.78-1.836 2.229-3.625 4.502-5.364 6.818-8.438 11.241-15.639 23.303-21.555 36.041-3.235.891-6.589 1.342-9.984 1.342zm41.373 327.817h39.15v50.499h-39.15zm92.218 50.499c-11.188 0-22.281-1.484-33.068-4.419v-46.08h167.139v46.08c-10.788 2.935-21.881 4.419-33.068 4.419zm193.22 0h-39.15v-50.499h39.15zm77.364-123.781c0 29.38-23.902 53.282-53.282 53.282h-333.601c-29.38 0-53.282-23.902-53.282-53.282v-25.588c0-29.38 23.902-53.282 53.282-53.282h333.601c29.38 0 53.282 23.902 53.282 53.282z"/><g><g><g><g><path d="m255.992 19.992c-4.113 0-7.9-2.616-9.355-6.464-1.553-4.109-.166-8.877 3.337-11.522 3.69-2.786 9.118-2.667 12.649.335 2.845 2.419 4.148 6.367 3.256 9.997-1.12 4.558-5.221 7.654-9.887 7.654z"/></g></g></g></g><g><g><g><g><g><path d="m324.898 223.559c11.664-11.664 30.643-11.662 42.309.003 3.905 3.905 3.905 10.237 0 14.142s-10.237 3.905-14.142 0c-3.867-3.867-10.159-3.869-14.024-.003-3.905 3.905-10.237 3.905-14.142 0-3.906-3.905-3.906-10.237-.001-14.142z"/></g></g></g></g><g><g><g><g><path d="m187.312 223.559c3.905 3.905 3.905 10.237 0 14.142s-10.237 3.905-14.142 0c-3.866-3.866-10.157-3.864-14.024.003-3.905 3.905-10.237 3.905-14.142 0s-3.905-10.237 0-14.142c11.666-11.665 30.645-11.667 42.308-.003z"/></g></g></g></g></g></g></g></svg>